<svg xmlns="http://www.w3.org/2000/svg" viewBox="0 0 340 80" width="340" height="80" role="img" aria-labelledby="c4h-title">
  <title id="c4h-title">Audistill Logo Horizontal - Waveform to Drop</title>
  <!-- Mark -->
  <g transform="translate(2, 4) scale(0.72)">
    <rect x="10" y="38" width="3" height="24" rx="1.5" fill="#d97757" opacity="0.35"/>
    <rect x="17" y="32" width="3" height="36" rx="1.5" fill="#d97757" opacity="0.45"/>
    <rect x="24" y="28" width="3" height="44" rx="1.5" fill="#d97757" opacity="0.55"/>
    <rect x="31" y="34" width="3" height="32" rx="1.5" fill="#d97757" opacity="0.65"/>
    <rect x="38" y="30" width="3" height="40" rx="1.5" fill="#d97757" opacity="0.75"/>
    <path d="M46,50 L54,50" stroke="#d97757" stroke-width="1.5" stroke-linecap="round" opacity="0.6"/>
    <path d="M51,47 L54,50 L51,53" stroke="#d97757" stroke-width="1.5" stroke-linecap="round" stroke-linejoin="round" fill="none" opacity="0.6"/>
    <path d="M72,22 C72,22 90,50 90,62 C90,72 82,80 72,80 C62,80 54,72 54,62 C54,50 72,22 72,22 Z" fill="#d97757"/>
    <ellipse cx="68" cy="52" rx="4" ry="6" fill="#e89b7f" opacity="0.4"/>
  </g>
  <!-- Wordmark -->
  <text x="90" y="52" font-family="Poppins, Arial, sans-serif" font-size="32" font-weight="600" fill="#141413" letter-spacing="-0.5">Audistill</text>
</svg>
